<svg xmlns="http://www.w3.org/2000/svg" xmlns:xlink="http://www.w3.org/1999/xlink" width="1080" zoomAndPan="magnify" viewBox="0 0 810 809.999993" height="1080" preserveAspectRatio="xMidYMid meet" version="1.0"><defs><g/><clipPath id="11ffa7a181"><rect x="0" width="315" y="0" height="567"/></clipPath><clipPath id="58e5ba5aac"><rect x="0" width="515" y="0" height="566"/></clipPath></defs><g transform="matrix(1, 0, 0, 1, 10, 185)"><g clip-path="url(#11ffa7a181)"><g fill="#5634f1" fill-opacity="1"><g transform="translate(0.264711, 438.784182)"><g><path d="M 280.015625 -434.5 L 280.015625 0 L 33.515625 0 L 33.515625 -434.5 Z M 280.015625 -434.5 "/></g></g></g></g></g><g transform="matrix(1, 0, 0, 1, 285, 56)"><g clip-path="url(#58e5ba5aac)"><g fill="#5634f1" fill-opacity="1"><g transform="translate(514.732691, 127.866562)"><g><path d="M -492.984375 433.484375 L -492.984375 270.28125 L -448.78125 303.15625 L -448.78125 141.65625 L -492.984375 177.359375 L -492.984375 0 L -36.828125 0 L -36.828125 433.484375 Z M -447.078125 304.859375 L -287.859375 424.40625 L -286.15625 424.40625 L -286.15625 219.296875 Z M -286.15625 9.0625 L -287.859375 9.0625 L -448.78125 139.953125 L -286.15625 214.1875 Z M -286.15625 9.0625 "/></g></g></g></g></g></svg>