<svg xmlns="http://www.w3.org/2000/svg" xmlns:xlink="http://www.w3.org/1999/xlink" width="1080" zoomAndPan="magnify" viewBox="0 0 810 809.999993" height="1080" preserveAspectRatio="xMidYMid meet" version="1.0"><defs><g/><clipPath id="90278263e5"><rect x="0" width="647" y="0" height="810"/></clipPath></defs><g transform="matrix(1, 0, 0, 1, 55, 0.000000000000039746)"><g clip-path="url(#90278263e5)"><g fill="#522ec9" fill-opacity="1"><g transform="translate(1.118055, 659.61482)"><g><path d="M 56.734375 -472.828125 L 356.640625 -472.828125 L 356.640625 -420.140625 L 235.0625 -420.140625 L 235.0625 -52.6875 L 356.640625 -52.6875 L 356.640625 0 L 56.734375 0 L 56.734375 -52.6875 L 178.328125 -52.6875 L 178.328125 -420.140625 L 56.734375 -420.140625 Z M 56.734375 -472.828125 "/></g></g></g><g fill="#522ec9" fill-opacity="1"><g transform="translate(285.484391, 659.61482)"><g><path d="M 63.5 -472.828125 L 349.890625 -472.828125 L 349.890625 -420.140625 L 120.234375 -420.140625 L 120.234375 -263.4375 L 345.84375 -263.4375 L 345.84375 -210.75 L 120.234375 -210.75 L 120.234375 -52.6875 L 353.953125 -52.6875 L 353.953125 0 L 63.5 0 Z M 63.5 -472.828125 "/></g></g></g></g></g></svg>